<svg width="146" height="24" viewBox="0 0 146 24" fill="none" xmlns="http://www.w3.org/2000/svg">
<path d="M5.18099 11.5139L9.91535 4.70267H15.0293L9.37938 12.2508L14.9847 20H9.55804L5.18099 13.7471V20H0.781615V4.70267H5.18099V11.5139ZM20.0995 20V4.70267H31.7791V8.45443H24.4989V10.4643H31.1092V14.1714H24.4989V16.2482H31.8238V20H20.0995ZM42.0286 20H37.6292V4.70267H42.0286V20ZM48.0716 20V4.70267H54.9498C58.5006 4.70267 59.9075 6.64554 59.9075 8.72241C59.9075 10.0177 59.2599 11.2012 57.786 11.8489C59.8405 12.4072 60.8231 13.7694 60.8231 15.6453C60.8231 18.2804 59.0142 20 55.6868 20H48.0716ZM54.3915 8.23111H52.471V10.576H54.3692C55.1731 10.576 55.5974 10.04 55.5974 9.43703C55.5974 8.7894 55.2401 8.23111 54.3915 8.23111ZM54.9945 13.9927H52.471V16.4716H55.0615C55.9547 16.4716 56.4237 15.9133 56.4237 15.2433C56.4237 14.5287 55.9547 13.9927 54.9945 13.9927ZM70.9379 20H66.5385V4.70267H70.9379V20ZM77.2935 20V4.70267H82.0056C86.271 4.70267 89.7547 7.91846 89.7547 12.3402C89.7547 16.7619 86.271 20 82.0056 20H77.2935ZM81.9609 5.79693H78.4771V18.9057H81.9609C85.668 18.9057 88.5711 16.1143 88.5711 12.3402C88.5711 8.56609 85.668 5.79693 81.9609 5.79693ZM100.758 5.79693H97.1844V12.8985H100.646C103.571 12.8985 105.001 11.3352 105.001 9.37003C105.001 7.36016 103.549 5.79693 100.758 5.79693ZM97.1844 13.9481V20H96.0008V4.70267H101.026C104.241 4.70267 106.184 6.69021 106.184 9.3477C106.184 11.9159 104.13 13.9481 101.093 13.9481H98.8593L106.452 20H104.688L97.1844 13.9481ZM119.416 20.1787C115.129 20.1787 111.623 16.8735 111.623 12.3402C111.623 7.8068 115.129 4.52402 119.416 4.52402C123.704 4.52402 127.21 7.8068 127.21 12.3402C127.21 16.8735 123.704 20.1787 119.416 20.1787ZM119.416 19.0621C123.124 19.0621 126.027 16.1813 126.027 12.3402C126.027 8.49909 123.124 5.66294 119.416 5.66294C115.709 5.66294 112.806 8.49909 112.806 12.3402C112.806 16.1813 115.709 19.0621 119.416 19.0621ZM138.484 14.6404H134.643V20H133.459V4.70267H138.729C141.856 4.70267 143.977 6.8912 143.977 9.66035C143.977 12.5188 141.9 14.6404 138.484 14.6404ZM138.394 5.79693H134.643V13.5461H138.618C141.231 13.5461 142.794 11.8265 142.794 9.63802C142.794 7.51649 141.253 5.79693 138.394 5.79693Z" fill="white"/>
</svg>
