<svg width="195" height="24" viewBox="0 0 195 24" fill="none" xmlns="http://www.w3.org/2000/svg">
<path d="M5.18099 11.5138L9.91535 4.70255H15.0293L9.37938 12.2507L14.9847 19.9999H9.55804L5.18099 13.747V19.9999H0.781615V4.70255H5.18099V11.5138ZM20.0995 19.9999V4.70255H31.7791V8.4543H24.4989V10.4642H31.1092V14.1713H24.4989V16.2481H31.8238V19.9999H20.0995ZM42.0286 19.9999H37.6292V4.70255H42.0286V19.9999ZM48.0716 19.9999V4.70255H54.9498C58.5006 4.70255 59.9075 6.64542 59.9075 8.72229C59.9075 10.0175 59.2599 11.2011 57.786 11.8487C59.8405 12.407 60.8231 13.7693 60.8231 15.6452C60.8231 18.2803 59.0142 19.9999 55.6868 19.9999H48.0716ZM54.3915 8.23099H52.471V10.5758H54.3692C55.1731 10.5758 55.5974 10.0399 55.5974 9.43691C55.5974 8.78928 55.2401 8.23099 54.3915 8.23099ZM54.9945 13.9926H52.471V16.4714H55.0615C55.9547 16.4714 56.4237 15.9131 56.4237 15.2432C56.4237 14.5286 55.9547 13.9926 54.9945 13.9926ZM70.9379 19.9999H66.5385V4.70255H70.9379V19.9999ZM77.2935 19.9999V4.70255H82.0056C86.271 4.70255 89.7547 7.91834 89.7547 12.34C89.7547 16.7618 86.271 19.9999 82.0056 19.9999H77.2935ZM81.9609 5.79681H78.4771V18.9056H81.9609C85.668 18.9056 88.5711 16.1141 88.5711 12.34C88.5711 8.56596 85.668 5.79681 81.9609 5.79681ZM100.758 5.79681H97.1844V12.8983H100.646C103.571 12.8983 105.001 11.3351 105.001 9.36991C105.001 7.36004 103.549 5.79681 100.758 5.79681ZM97.1844 13.9479V19.9999H96.0008V4.70255H101.026C104.241 4.70255 106.184 6.69009 106.184 9.34758C106.184 11.9157 104.13 13.9479 101.093 13.9479H98.8593L106.452 19.9999H104.688L97.1844 13.9479ZM119.416 20.1785C115.129 20.1785 111.623 16.8734 111.623 12.34C111.623 7.80668 115.129 4.5239 119.416 4.5239C123.704 4.5239 127.21 7.80668 127.21 12.34C127.21 16.8734 123.704 20.1785 119.416 20.1785ZM119.416 19.0619C123.124 19.0619 126.027 16.1811 126.027 12.34C126.027 8.49897 123.124 5.66282 119.416 5.66282C115.709 5.66282 112.806 8.49897 112.806 12.34C112.806 16.1811 115.709 19.0619 119.416 19.0619ZM138.484 14.6402H134.643V19.9999H133.459V4.70255H138.729C141.856 4.70255 143.977 6.89107 143.977 9.66022C143.977 12.5187 141.9 14.6402 138.484 14.6402ZM138.394 5.79681H134.643V13.546H138.618C141.231 13.546 142.794 11.8264 142.794 9.63789C142.794 7.51637 141.253 5.79681 138.394 5.79681Z" fill="white"/>
</svg>
